<svg xmlns="http://www.w3.org/2000/svg" version="1.1"
    xmlns:xlink="http://www.w3.org/1999/xlink" width="512" height="512" x="0" y="0" viewBox="0 0 512 512" style="enable-background:new 0 0 512 512" xml:space="preserve" class="">
    <g>
        <path d="M512 256c0 141.387-114.613 256-256 256S0 397.387 0 256 114.613 0 256 0s256 114.613 256 256Zm0 0" style="stroke:none;fill-rule:nonzero;fill-opacity:1;" fill="#fe6a16" data-original="#fe6a16" class=""></path>
        <path d="M339.621 498.016C439.941 463.359 512 368.102 512 256c0-2.11-.027-4.215-.078-6.313l-146.36-146.351L134.066 262l71.82 71.82-18.64 11.82Zm0 0" style="stroke:none;fill-rule:nonzero;fill-opacity:1;" fill="#f24500" data-original="#f24500"></path>
        <path d="M294.5 373.645V348h-77v25.645a27.653 27.653 0 0 1-18.188 25.98L80.915 442.742C126.7 485.687 188.274 512 256 512c67.727 0 129.3-26.313 175.086-69.258l-118.399-43.117a27.653 27.653 0 0 1-18.187-25.98Zm0 0" style="stroke:none;fill-rule:nonzero;fill-opacity:1;" fill="#ffbeaa" data-original="#ffbeaa"></path>
        <path d="m431.086 442.742-118.399-43.117a27.653 27.653 0 0 1-18.187-25.98V348h-38.93v163.996c.145 0 .285.004.43.004 67.727 0 129.3-26.313 175.086-69.258Zm0 0" style="stroke:none;fill-rule:nonzero;fill-opacity:1;" fill="#faa68e" data-original="#faa68e"></path>
        <path d="M386.402 239.902c0 18.266-14.804 33.075-33.07 33.075-18.262 0-33.07-14.809-33.07-33.075 0-18.261 14.808-33.07 33.07-33.07 18.266 0 33.07 14.809 33.07 33.07ZM191.738 239.902c0 18.266-14.808 33.075-33.07 33.075-18.266 0-33.07-14.809-33.07-33.075 0-18.261 14.804-33.07 33.07-33.07 18.262 0 33.07 14.809 33.07 33.07Zm0 0" style="stroke:none;fill-rule:nonzero;fill-opacity:1;" fill="#ffbeaa" data-original="#ffbeaa"></path>
        <path d="m300.031 363.715-22.082 11.344a48.03 48.03 0 0 1-43.898 0l-22.082-11.344c-32.727-16.813-53.301-50.512-53.301-87.305v-86.074C158.668 136.578 202.242 93 256 93c53.758 0 97.332 43.578 97.332 97.332v86.078c0 36.793-20.574 70.492-53.3 87.305Zm0 0" style="stroke:none;fill-rule:nonzero;fill-opacity:1;" fill="#ffcdbe" data-original="#ffcdbe"></path>
        <path d="M256 93c-.145 0-.285.004-.43.004v287.348a47.99 47.99 0 0 0 22.38-5.293l22.081-11.344c32.727-16.813 53.301-50.512 53.301-87.305v-86.078C353.332 136.578 309.758 93 256 93Zm0 0" style="stroke:none;fill-rule:nonzero;fill-opacity:1;" fill="#ffbeaa" data-original="#ffbeaa"></path>
        <path d="M130 81.668v85.5c0 16.656 7.129 31.648 18.5 42.098V257.5c0 11.047 8.953 20 20 20v-56.3a57.111 57.111 0 0 0 18.668 3.132H238.5c31.57 0 57.168-25.594 57.168-57.168v-75.5c0-5.52-4.477-10-10-10H130Zm0 0" style="stroke:none;fill-rule:nonzero;fill-opacity:1;" fill="#414952" data-original="#414952"></path>
        <path d="M314.258 81.668h-10.09c-4.086 0-7.645 2.2-9.594 5.469-1.652-3.242-5.015-5.469-8.906-5.469H255.57v140.07c18.13-5.664 32.375-20.11 37.762-38.355 2.711 23.058 22.309 40.953 46.094 40.953 1.375 0 2.73-.074 4.074-.191V277.5c11.047 0 20-8.953 20-20v-39.887c13.402-8.144 22.352-22.879 22.352-39.707v-24.648c0-39.54-32.051-71.59-71.594-71.59Zm0 0" style="stroke:none;fill-rule:nonzero;fill-opacity:1;" fill="#333940" data-original="#333940"></path>
        <path d="m333 403-77.332 37.332L179 403 77.883 439.852C123.96 484.504 186.766 512 256 512c68.313 0 130.371-26.762 176.277-70.367Zm0 0" style="stroke:none;fill-rule:nonzero;fill-opacity:1;" fill="#c8fffa" data-original="#c8fffa"></path>
        <path d="M256 512c68.313 0 130.371-26.762 176.277-70.367L333 403l-77.332 37.332Zm0 0" style="stroke:none;fill-rule:nonzero;fill-opacity:1;" fill="#9bf5f0" data-original="#9bf5f0"></path>
        <path d="M272.082 483.168h-32.164l-10-42.168h52.164Zm0 0" style="stroke:none;fill-rule:nonzero;fill-opacity:1;" fill="#4a7aff" data-original="#4a7aff"></path>
        <path d="M236.121 511.23c6.563.508 13.188.77 19.879.77 6.691 0 13.316-.266 19.879-.77l-3.797-28.066h-32.168Zm0 0" style="stroke:none;fill-rule:nonzero;fill-opacity:1;" fill="#2864f0" data-original="#2864f0"></path>
        <path d="m310.332 391.668-54 48.664 27 37.336L333 403Zm0 0" style="stroke:none;fill-rule:nonzero;fill-opacity:1;" fill="#e9edf5" data-original="#e9edf5"></path>
        <path d="m201.668 391.668 54 48.664-27 37.336L179 403Zm0 0" style="stroke:none;fill-rule:nonzero;fill-opacity:1;" fill="#ffffff" data-original="#ffffff"></path>
        <path d="M433.188 440.762 333 403l-35.059 105.563c52.051-8.583 98.805-32.848 135.247-67.801Zm0 0" style="stroke:none;fill-rule:nonzero;fill-opacity:1;" fill="#27488f" data-original="#27488f"></path>
        <path d="M297.941 508.563a254.491 254.491 0 0 0 38.25-9.391L333 483.164l25.465-7.664v-62.902L333 403Zm0 0" style="stroke:none;fill-rule:nonzero;fill-opacity:1;" fill="#12254c" data-original="#12254c"></path>
        <path d="M77.883 439.852 179 403l35.059 105.563c-52.051-8.583-99.184-32.938-136.176-68.711Zm0 0" style="stroke:none;fill-rule:nonzero;fill-opacity:1;" fill="#27488f" data-original="#27488f"></path>
        <path d="M214.059 508.563a254.491 254.491 0 0 1-38.25-9.391L179 483.164l-25.465-7.664v-62.902L179 403Zm0 0" style="stroke:none;fill-rule:nonzero;fill-opacity:1;" fill="#1b3b6b" data-original="#1b3b6b"></path>
    </g>
</svg>