<?xml version="1.0" encoding="UTF-8"?><svg id="Layer_1" xmlns="http://www.w3.org/2000/svg" viewBox="0 0 1085.46 348.66"><path d="M298.5,130.97c9.04,0,15.07,0,18.09.3,5.53.6,9.29,1.8,11.3,3.6,2.51,2.1,3.52,6.31,3.52,12.31,0,1.8,0,3.9-.25,6.61-.25,3.3-1,9.61-2.01,19.22l-1.51,11.41c-1.26,12.01-2.26,19.82-3.27,23.72-1,5.7-2.76,9.91-4.77,12.61-2.26,2.4-5.78,4.2-10.8,4.8-3.27.6-9.29.9-18.09.9h-51.74c-1.72,0-2.95,0-3.69.29-.74,0-1.48.29-1.97.88-.49.59-.74,1.76-.98,3.53,0,.88-.25,2.94-.74,6.17h54.31c9.82,0,16.11.3,18.88.91,4.03.6,6.8,2.12,8.31,4.53,2.01,2.42,3.02,6.65,3.27,13.3.5,3.63.5,9.67.5,18.73v4.84h-95.17c-10.07,0-16.62-.6-20.14-1.21-3.52-1.21-6.04-3.02-7.55-5.74-1.01-2.12-1.51-5.14-1.51-9.37v-2.03c.25-4.2,1-12.01,2.26-24.02l7.54-64.26c1.51-10.81,2.51-17.72,3.01-21.32,1.26-7.21,3.01-12.31,5.28-14.71,2.51-2.7,6.03-4.5,10.55-5.11,3.52-.6,11.05-.9,22.61-.9h54.76ZM240.37,173.58c-.51,0-1.01.6-1.52,1.21-.25.6-.51,1.51-1.01,2.72,0,.91-.25,3.02-.76,6.65h52.33c1.52-.3,2.53-.91,3.03-1.51.51-.6.76-1.21.76-2.42.25-1.21.51-3.63.76-6.95h-49.3c-2.28,0-3.79,0-4.3.3Z"/><path d="M464.35,132.15c3.52.6,6.03,1.5,7.54,3,2.51,2.1,3.77,6.31,3.77,12.61,0,1.2,0,2.4-.25,4.2,0,3.6-.75,10.81-2.01,21.62l-4.02,33.63-3.52,30.63c-1.51,14.41-3.01,23.42-4.27,27.63-1,4.2-2.76,7.51-5.02,9.61-2.01,1.8-4.77,3-8.29,3.9-3.52.6-11.56,1.2-24.12.66h-54.51c-12.06.54-19.85-.06-23.36-.66-3.52-.9-6.03-2.4-7.54-4.5-1.51-2.4-2.66-10.51-2.66-10.51v-3.97c.26-4.12,1.03-12.05,2.31-23.81l1.54-10.88c1.28-10.58,2.31-17.64,2.83-21.17,1.29-7.06,3.08-11.76,5.14-14.11,2.31-2.65,5.66-4.41,10.03-5,3.6-.59,10.28-.88,19.8-.88h53.73c2.06,0,3.6-.29,4.11-.29,1.03-.29,1.8-.88,2.31-1.47.51-.59.77-1.47.77-2.65.26-1.18.51-3.23.77-6.47h-56.56c-9.25,0-15.68-.29-18.77-.59-4.63-.88-7.71-2.65-9.51-5.29-1.54-2.65-2.57-7.06-3.08-13.52,0-3.53-.26-9.41-.26-17.05v-5.85h97.53c7.29.28,12.56.58,15.58,1.18ZM378.7,226.75c-.74,0-1.23.59-1.72,1.18-.49.59-.74,2.06-.98,4.41,0,.88-.25,2.65-.74,5h48.21c1.97,0,3.44-.29,3.93-.29.98-.29,1.48-.59,1.72-1.18.49-.59.74-1.76.98-2.94.25-1.18.49-3.23.74-6.47h-48.45c-1.97,0-3.2,0-3.69.29Z"/><path d="M586.35,130.97h35.9c-1.52,12.09-2.53,20.25-3.54,24.48-1.01,5.74-2.78,9.97-5.06,12.39-2.53,2.72-7.08,4.53-13.15,5.14-3.29,0-9.61.3-19.21.3h-45.89c-3.51,0-6.01,0-7.01.6-1,0-1.75.3-2.25.9-.5.6-1,1.8-1.5,3.59,0,.9-.25,2.99-.75,5.99l-6.26,52.98h91.06c-1.51,12.9-2.51,21.3-3.51,25.5-1,5.4-2.76,9.6-5.27,12-2.26,2.1-6.02,3.6-11.04,4.2-3.26.3-10.04.6-20.33.6h-56.23c-12.05,0-19.83-.6-23.34-1.2-3.51-1.2-6.02-3-7.53-5.4-1-2.1-1.76-5.4-1.76-9.6v-1.32c.25-4.23,1.01-12.09,2.53-24.17,1.01-8.46,2.28-20.85,4.3-36.87,2.02-16.32,3.03-25.38,3.29-27.8,1.52-12.09,2.53-19.94,3.03-23.57,1.26-6.35,3.03-10.88,5.31-13.3,2.28-2.42,5.56-4.23,10.11-4.84,3.54-.6,9.86-.6,18.96-.6h59.16Z"/><path d="M822.29,194.81c-.25.41-.53.8-.81,1.19-.62.63-1.29,1.24-2.01,1.83-.12.1-.25.2-.38.3-4.62,3.6-10.4,5.42-16.09,5.42-1.68,0-3.36-.16-4.99-.48-.65-6.32-.67-12.92.12-19.76.84-7.31,3.07-14.3,6.39-20.68,6.02-.06,11.95,1.89,16.35,5.78l-7.01,15.28,3.5,4.6,4.95,6.51Z"/><polygon points="881.11 180.9 869.4 206.41 838.97 208.68 838 208.75 850.18 182.21 851.13 182.18 881.11 180.9"/><polygon points="848.13 181.29 835.96 207.83 835.54 207.28 826.18 194.99 823.88 191.96 817.52 183.61 817.03 182.96 817.89 181.1 817.89 181.09 822.8 170.39 824.45 166.81 826.04 163.33 828.74 157.45 830.03 159.04 835.53 165.79 832.43 172.56 838.07 180.1 841.35 172.95 847.71 180.78 848.13 181.29"/><path d="M832.29,157.06c-.29.23-.56.45-.84.69l-1.28-1.57,1.33-.08h.02l2.2-.14c-.49.35-.96.71-1.42,1.1h-.01Z"/><path d="M906.44,183.31c-5.42,47.09-46.42,82.74-60.57,93.76-2.78,2.16-6.49,2.16-8.76,0-9.61-9.1-33.62-34.99-38.67-70.25,1.27.19,2.57.3,3.87.32,6.6.11,12.99-1.91,18.15-5.72,4.9,10.17,15.16,16.96,27.77,16.96,19.18,0,36.53-15.7,38.75-35.07,2.23-19.37-11.51-35.07-30.68-35.07-5.03,0-9.89,1.09-14.43,3.03h-.05s-13.51.9-13.51.9l-5.88,12.81c-4.34-3.55-9.89-5.63-15.92-5.93,10.92-18.05,30.77-30.46,52.05-30.46,29.92,0,51.36,24.49,47.88,54.71Z"/><path d="M822.29,194.81c-.25.41-.53.8-.81,1.19-.62.63-1.29,1.24-2.01,1.83-.12.1-.25.2-.38.3-1.05-3.06-1.66-6.37-1.74-9.83l4.95,6.51Z"/><polygon points="881.11 180.9 869.4 206.41 838.97 208.68 838 208.75 850.18 182.21 851.13 182.18 881.11 180.9"/><path d="M848.13,181.29l-12.18,26.54-.42-.55-9.36-12.3-2.31-3.02-6.36-8.35c.01-.1.02-.2.04-.3.08-.74.19-1.48.33-2.21h0s4.91-10.71,4.91-10.71l1.65-3.58,1.59-3.48c1.23-1.53,2.56-2.96,3.99-4.29l5.5,6.75-3.09,6.76,5.64,7.54,3.27-7.15,6.37,7.83.42.51Z"/><path d="M822.29,194.81c-.25.41-.53.8-.81,1.19-.62.63-1.29,1.24-2.01,1.83-.12.1-.25.2-.38.3-4.62,3.6-10.4,5.42-16.09,5.42-1.68,0-3.36-.16-4.99-.48-3.64-.71-7.1-2.2-10.04-4.48l-.31-.24s11.39-3.38,8.97-3.42c-14.46-.24-26.24-8.84-28.49-14.41.99.17,1.96.25,2.93.25,10.85,0,19.74-9.94,27.14-9.75,2.41.06-8.5-3.69-8.5-3.69l.33-.24c4.34-2.94,9.43-4.41,14.47-4.47,6.02-.06,11.95,1.89,16.35,5.78l-7.01,15.28,3.5,4.6,4.95,6.51Z"/><path d="M829.6,183.51c-.26,3.97-1.43,7.87-3.42,11.47l-2.31-3.02-6.36-8.35-.49-.65.86-1.86h0s4.91-10.71,4.91-10.71l1.65-3.58c.49.5.97,1.02,1.4,1.57l.18.2.13.24c2.59,4.47,3.78,9.55,3.44,14.7Z"/><path d="M822.29,194.81c-.25.41-.53.8-.81,1.19-.62.63-1.29,1.24-2.01,1.83-.12.1-.25.2-.38.3-4.62,3.6-10.4,5.42-16.09,5.42-1.68,0-3.36-.16-4.99-.48-3.64-.71-7.1-2.2-10.04-4.48l-.31-.24s11.39-3.38,8.97-3.42c-14.46-.24-26.24-8.84-28.49-14.41.99.17,1.96.25,2.93.25,10.85,0,19.74-9.94,27.14-9.75,2.41.06-8.5-3.69-8.5-3.69l.33-.24c4.34-2.94,9.43-4.41,14.47-4.47,6.02-.06,11.95,1.89,16.35,5.78l-7.01,15.28,3.5,4.6,4.95,6.51Z"/><path d="M826.11,183.45c-.19,2.99-.98,5.85-2.23,8.51l-6.36-8.35-.49-.65.86-1.86h0s4.91-10.71,4.91-10.71c.12.13.23.26.33.39,2.19,3.75,3.29,8.08,2.98,12.67Z"/><polygon points="881.11 180.9 869.4 206.41 838.97 208.68 838 208.75 850.18 182.21 851.13 182.18 881.11 180.9"/><polygon points="848.13 181.29 835.96 207.83 835.54 207.28 826.18 194.99 823.88 191.96 817.52 183.61 817.03 182.96 817.89 181.1 817.89 181.09 822.8 170.39 824.45 166.81 826.04 163.33 828.74 157.45 830.03 159.04 835.53 165.79 832.43 172.56 838.07 180.1 841.35 172.95 847.71 180.78 848.13 181.29"/><polygon points="881.13 179 851.11 180.2 849.84 180.25 849.05 179.28 842.3 171.02 843.56 170.92 843.63 170.91 873.03 168.53 877.9 174.82 880.32 177.95 881.13 179"/><polygon points="867.64 161.6 837.93 163.99 836.64 164.1 831.45 157.75 830.17 156.19 831.5 156.1 831.52 156.1 833.72 155.96 833.73 155.95 861.85 154.11 864.62 157.69 867.64 161.6"/><path d="M75.18,279.24c1.93-.9,4.6-2.55,6.85-5.64,2.57-3.52,3.31-7.29,4.3-12.39.76-3.93,1.77-11.48,3.03-22.97l6.07-52.28c.51-3.93,1.01-6.35,1.26-7.55.51-1.81,1.01-3.02,2.02-3.63.76-.6,1.77-1.21,3.03-1.21,1.26-.3,3.79-.3,7.58-.3h42.98c10.62,0,17.44-.3,20.73-.6,5.31-.6,9.1-2.12,11.38-4.53,2.53-2.42,4.3-6.65,5.56-12.39,1.01-4.23,2.02-12.39,3.54-24.78h-97.08c-8.6,0-14.41.3-17.95.91-4.05.6-7.33,2.42-9.35,5.14-2.02,2.42-3.79,6.95-5.06,13.6-.51,3.63-1.52,11.18-3.03,22.66l-10.82,91.84c-4.37,5.27-8.81,9.31-13.18,14.58h36.03c.72,0,1.43-.14,2.1-.46Z"/><path d="M762.29,136.38c-1.51-2.4-4.27-3.9-8.29-4.51-3.27-.6-9.3-.9-18.09-.9h-59.55l2.26-19.22c1.76-11.71,2.76-19.52,2.76-23.43.25-1.2.25-2.4.25-3.6,0-3.9-.5-6.91-1.76-8.71-1.51-3-4.52-4.81-9.3-5.71-3.18-.54-9.66-.84-19.61-.89l-18.04-.61,13.03,15.78-7.04,61.1-10.8,91.9-5.03,42.05h2.25c9.55,0,15.84-.3,19.1-.6,4.27-.6,7.54-1.8,9.55-3.61,2.77-2.4,4.78-6.61,6.03-12.62,1-4.21,2.26-12.62,3.77-25.24l7.54-64.3h55.3l-7.54,64.3-5.03,42.06h2.49c10.3,0,17.34-.3,20.85-.9,5.03-1.2,8.54-3.3,10.55-6.31,1.76-2.7,3.01-6.61,4.02-12.01.75-3.9,1.76-11.41,2.76-22.83l7.54-64.27c1.51-13.21,2.26-21.92,2.26-25.83,0-5.41-.5-9.01-2.26-11.11Z"/><path d="M1044.9,134.87c-1.51-1.8-4.02-2.7-7.28-3.3-3.01-.6-7.78-.6-14.56-.6h-70.53c-6.53,0-11.3,0-14.31.6-4.02.6-7.03,1.8-9.04,3.6-2.51,2.1-4.52,6-6.02,11.7-.75,3.9-2.01,12.6-3.51,26.4l-1.26,10.8-5.02,42.3-1.26,11.1-3.19,26.71-12.89,15.61,11.07-.37v.06c10.79,0,17.81-.3,21.08-.6,4.52-.9,8.03-2.4,10.04-4.2,2.51-2.4,4.52-6,5.52-11.1,1-4.2,2.51-12.9,4.02-26.1l1.26-11.1,5.02-42.3c.5-3.3.75-5.4.75-6.3.5-1.8,1.26-3,1.76-3.6.75-.6,1.51-.9,2.51-.9,1-.3,2.76-.3,5.52,0h45.93l-1.26,10.8-5.02,42.3-1.26,11.1-5.02,42c12.3,0,20.33-.6,23.85-1.2,4.27-1.2,7.28-3,9.29-5.7,2.01-2.4,3.26-6.3,4.27-11.1,1-3.9,2.01-12,3.26-24l1.26-11.1,5.02-42.3,1.26-10.8c1.51-13.2,2.26-21.9,2.26-25.8v-2.1c-.25-5.1-1.51-8.7-3.51-10.5Z"/></svg>