<svg xmlns="http://www.w3.org/2000/svg" version="1.1"
    xmlns:xlink="http://www.w3.org/1999/xlink" width="512" height="512" x="0" y="0" viewBox="0 0 256 256" style="enable-background:new 0 0 512 512" xml:space="preserve" class="">
    <g>
        <path fill="#f0c020" d="m204.79 135.857-71.79.001V111.93h-10v23.929l-71.789.001c-8.27 0-14.999 6.729-15 14.999l-.002 21.667 10 .001.002-21.667c0-2.757 2.243-5 5-5l71.789-.002v26.668h10v-26.669l71.79-.001c2.757 0 5 2.243 5 5v21.668h10v-21.668c0-8.27-6.729-14.999-15-14.999z" opacity="1" data-original="#f0c020"></path>
        <path fill="#72c2e9" d="M72.589 85.088V103.3a8.629 8.629 0 0 0 8.629 8.629h93.565a8.629 8.629 0 0 0 8.629-8.629V85.088a8.629 8.629 0 0 0-8.629-8.629H81.218a8.629 8.629 0 0 0-8.629 8.629z" opacity="1" data-original="#72c2e9" class=""></path>
        <path fill="#f0c020" d="M72.589 49.617V67.83a8.629 8.629 0 0 0 8.629 8.629h93.565a8.629 8.629 0 0 0 8.629-8.629V49.617a8.629 8.629 0 0 0-8.629-8.629H81.218a8.629 8.629 0 0 0-8.629 8.629z" opacity="1" data-original="#f0c020"></path>
        <path fill="#72c2e9" d="M72.589 14.146v18.213a8.629 8.629 0 0 0 8.629 8.629h93.565a8.629 8.629 0 0 0 8.629-8.629V14.146a8.629 8.629 0 0 0-8.629-8.629H81.218a8.629 8.629 0 0 0-8.629 8.629z" opacity="1" data-original="#72c2e9" class=""></path>
        <path fill="#efefef" d="M94.408 177.527v67.956a5 5 0 0 0 5 5h57.184a5 5 0 0 0 5-5v-67.956a5 5 0 0 0-5-5H99.408a5 5 0 0 0-5 5z" opacity="1" data-original="#efefef"></path>
        <path fill="#fc5d3d" d="M181.198 177.527v67.956a5 5 0 0 0 5 5h57.184a5 5 0 0 0 5-5v-67.956a5 5 0 0 0-5-5h-57.184a5 5 0 0 0-5 5zM7.618 177.527v67.956a5 5 0 0 0 5 5h57.184a5 5 0 0 0 5-5v-67.956a5 5 0 0 0-5-5H12.618a5 5 0 0 0-5 5z" opacity="1" data-original="#fc5d3d"></path>
        <path d="M238.974 125.933c-3.729-1.228-6.641-2.022-8.591-10.421-.635-2.737-4.548-2.73-5.181 0-1.907 8.213-4.566 9.092-8.591 10.422-2.424.801-2.43 4.248 0 5.051 6.686 2.209 7.444 5.476 8.591 10.421.637 2.743 4.545 2.742 5.182 0 1.905-8.212 4.709-9.139 8.591-10.421 2.423-.802 2.428-4.25-.001-5.052z" fill="#000000" opacity="1" data-original="#000000"></path>
        <path fill="#f0c020" d="M231.777 128.487c-1.47 1.03-2.79 2.42-3.93 4.43-.94-1.58-2.25-3.08-4.17-4.4 1.55-1.06 2.94-2.5 4.13-4.64 1.2 2.16 2.56 3.6 3.97 4.61z" opacity="1" data-original="#f0c020"></path>
        <path d="M39.39 125.933c-3.729-1.228-6.641-2.022-8.591-10.421-.635-2.737-4.548-2.73-5.181 0-1.907 8.213-4.566 9.092-8.591 10.422-2.424.801-2.43 4.248 0 5.051 6.686 2.209 7.444 5.476 8.591 10.421.637 2.743 4.545 2.742 5.182 0 1.905-8.212 4.709-9.139 8.591-10.421 2.423-.802 2.428-4.25-.001-5.052z" fill="#000000" opacity="1" data-original="#000000"></path>
        <path fill="#f0c020" d="M32.193 128.487c-1.47 1.03-2.79 2.42-3.93 4.43-.94-1.58-2.25-3.08-4.17-4.4 1.55-1.06 2.94-2.5 4.13-4.64 1.2 2.16 2.56 3.6 3.97 4.61z" opacity="1" data-original="#f0c020"></path>
        <path fill="#ffffff" d="M151.592 242.983h-3a2.5 2.5 0 1 1 0-5h3a2.5 2.5 0 1 1 0 5zm-13 0h-34.184a2.5 2.5 0 1 1 0-5h34.184a2.5 2.5 0 1 1 0 5zM151.592 185.027h-34.184a2.5 2.5 0 1 1 0-5h34.184a2.5 2.5 0 1 1 0 5zm-44.184 0h-3a2.5 2.5 0 1 1 0-5h3a2.5 2.5 0 1 1 0 5z" opacity="1" data-original="#ffffff"></path>
        <g fill="#ffcbc3">
            <path d="M238.382 242.983h-3a2.5 2.5 0 1 1 0-5h3a2.5 2.5 0 1 1 0 5zm-13 0h-34.184a2.5 2.5 0 1 1 0-5h34.184a2.5 2.5 0 1 1 0 5zM238.382 185.027h-34.184a2.5 2.5 0 1 1 0-5h34.184a2.5 2.5 0 1 1 0 5zm-44.184 0h-3a2.5 2.5 0 1 1 0-5h3a2.5 2.5 0 1 1 0 5zM64.802 242.983h-3a2.5 2.5 0 1 1 0-5h3a2.5 2.5 0 1 1 0 5zm-13 0H17.618a2.5 2.5 0 1 1 0-5h34.184a2.5 2.5 0 1 1 0 5zM64.802 185.027H30.618a2.5 2.5 0 1 1 0-5h34.184a2.5 2.5 0 1 1 0 5zm-44.184 0h-3a2.5 2.5 0 1 1 0-5h3a2.5 2.5 0 1 1 0 5z" fill="#ffcbc3" opacity="1" data-original="#ffcbc3"></path>
        </g>
        <circle cx="76" cy="135.861" r="2.5" fill="#000000" opacity="1" data-original="#000000"></circle>
        <path d="M92.435 18.626a2.5 2.5 0 0 0-2.5 2.5v4.253a2.5 2.5 0 1 0 5 0v-4.253a2.5 2.5 0 0 0-2.5-2.5zM92.435 54.097a2.5 2.5 0 0 0-2.5 2.5v4.253a2.5 2.5 0 1 0 5 0v-4.253a2.5 2.5 0 0 0-2.5-2.5zM92.435 89.568a2.5 2.5 0 0 0-2.5 2.5v4.252a2.5 2.5 0 1 0 5 0v-4.252a2.5 2.5 0 0 0-2.5-2.5zM162.852 23.252a2.5 2.5 0 0 0-2.5-2.5h-42.086a2.5 2.5 0 1 0 0 5h42.086a2.5 2.5 0 0 0 2.5-2.5zM160.352 56.223h-42.086a2.5 2.5 0 1 0 0 5h42.086a2.5 2.5 0 1 0 0-5zM162.852 94.194a2.5 2.5 0 0 0-2.5-2.5h-42.086a2.5 2.5 0 1 0 0 5h42.086a2.5 2.5 0 0 0 2.5-2.5z" fill="#000000" opacity="1" data-original="#000000"></path>
        <circle cx="139.22" cy="40.991" r="2.5" fill="#000000" opacity="1" data-original="#000000"></circle>
        <path d="M250.882 245.483v-67.956c0-4.136-3.364-7.5-7.5-7.5H222.29v-19.169c0-9.649-7.851-17.5-17.5-17.5l-69.29.001V114.43h39.282c6.137 0 11.129-4.993 11.129-11.129V85.088c0-3.479-1.606-6.587-4.114-8.629a11.11 11.11 0 0 0 4.114-8.629V49.617c0-3.478-1.606-6.587-4.114-8.629a11.11 11.11 0 0 0 4.114-8.629V14.146c0-6.137-4.993-11.129-11.129-11.129H81.218c-6.137 0-11.129 4.992-11.129 11.129v18.213c0 3.478 1.606 6.587 4.114 8.629a11.11 11.11 0 0 0-4.114 8.629V67.83c0 3.479 1.606 6.587 4.114 8.629a11.11 11.11 0 0 0-4.114 8.629V103.3c0 6.137 4.993 11.129 11.129 11.129H120.5v18.932H86a2.5 2.5 0 0 0 0 5h37a2.5 2.5 0 0 0 2.5-2.5V114.43h5v21.429a2.5 2.5 0 0 0 2.5 2.5l71.79-.001c6.893 0 12.5 5.607 12.5 12.5v19.168h-5v-19.168c0-4.136-3.364-7.5-7.5-7.5H133a2.5 2.5 0 0 0-2.5 2.5v24.168h-5v-24.168a2.5 2.5 0 0 0-2.5-2.5l-71.789.001c-4.135 0-7.5 3.364-7.5 7.5l-.002 19.167h-5l.002-19.167c.001-6.867 5.582-12.497 12.498-12.497H66a2.5 2.5 0 0 0 0-5H51.231c-9.427-.086-17.518 7.686-17.519 17.497l-.002 19.169H12.618c-4.136 0-7.5 3.364-7.5 7.5v67.956c0 4.136 3.364 7.5 7.5 7.5h57.184c4.136 0 7.5-3.364 7.5-7.5v-67.956c0-4.136-3.364-7.5-7.5-7.5H48.71l.002-19.168c0-1.378 1.121-2.5 2.5-2.5l69.289-.001v21.668H99.408c-4.136 0-7.5 3.364-7.5 7.5v67.956c0 4.136 3.364 7.5 7.5 7.5h57.184c4.136 0 7.5-3.364 7.5-7.5v-67.956c0-4.136-3.364-7.5-7.5-7.5H135.5v-21.668l69.29-.001c1.378 0 2.5 1.122 2.5 2.5v19.169h-21.092a7.505 7.505 0 0 0-7.499 7.515v31.99c0 1.37 1.12 2.49 2.5 2.49s2.5-1.12 2.5-2.49v-32.014a2.502 2.502 0 0 1 2.499-2.49h57.184c1.378 0 2.5 1.122 2.5 2.5v67.956c0 1.378-1.122 2.5-2.5 2.5h-57.184a2.5 2.5 0 0 1-2.499-2.501v-15.96c0-1.37-1.12-2.49-2.5-2.49s-2.5 1.12-2.5 2.49v15.947a7.505 7.505 0 0 0 7.499 7.515h57.184c4.136-.002 7.5-3.366 7.5-7.502zM75.088 67.83V49.617c0-3.334 2.701-6.125 6.131-6.125h48c1.38 0 2.5-1.13 2.5-2.5a2.5 2.5 0 0 0-2.5-2.5H81.252c-3.652-.058-6.163-2.927-6.163-6.132V14.146a6.137 6.137 0 0 1 6.129-6.129h93.564c3.38 0 6.129 2.75 6.129 6.129v18.213c0 3.196-2.5 6.074-6.163 6.132H149.22a2.5 2.5 0 0 0-2.5 2.5c0 1.37 1.12 2.5 2.5 2.5h25.56c3.445 0 6.132 2.803 6.132 6.125V67.83a6.137 6.137 0 0 1-6.129 6.129H81.218a6.137 6.137 0 0 1-6.13-6.129zm6.13 41.6a6.136 6.136 0 0 1-6.129-6.129V85.088c0-3.38 2.75-6.129 6.129-6.129h93.564c3.38 0 6.129 2.75 6.129 6.129V103.3c0 3.38-2.75 6.129-6.129 6.129l-93.564.001zm-8.916 68.097v67.956c0 1.378-1.122 2.5-2.5 2.5H12.618a2.503 2.503 0 0 1-2.5-2.5v-67.956c0-1.378 1.122-2.5 2.5-2.5h57.184c1.378 0 2.5 1.121 2.5 2.5zm86.79 0v67.956c0 1.378-1.122 2.5-2.5 2.5H99.408a2.503 2.503 0 0 1-2.5-2.5v-67.956c0-1.378 1.122-2.5 2.5-2.5h57.184c1.378 0 2.5 1.121 2.5 2.5z" fill="#000000" opacity="1" data-original="#000000"></path>
        <path d="M181.2 222.031c1.38 0 2.5-1.13 2.5-2.51 0-1.37-1.12-2.5-2.5-2.5s-2.5 1.13-2.5 2.5a2.51 2.51 0 0 0 2.5 2.51zM25.42 214.005H57a2.5 2.5 0 1 0 0-5H25.42a2.5 2.5 0 1 0 0 5zM25.42 196.813H57a2.5 2.5 0 1 0 0-5H25.42a2.5 2.5 0 1 0 0 5zM25.42 231.197H57a2.5 2.5 0 1 0 0-5H25.42a2.5 2.5 0 1 0 0 5zM143.79 209.005h-31.58a2.5 2.5 0 1 0 0 5h31.58a2.5 2.5 0 1 0 0-5zM109.71 194.313a2.5 2.5 0 0 0 2.5 2.5h31.58a2.5 2.5 0 1 0 0-5h-31.58a2.5 2.5 0 0 0-2.5 2.5zM143.79 226.197h-31.58a2.5 2.5 0 1 0 0 5h31.58a2.5 2.5 0 1 0 0-5zM199 214.005h31.58a2.5 2.5 0 1 0 0-5H199a2.5 2.5 0 1 0 0 5zM199 196.813h31.58a2.5 2.5 0 1 0 0-5H199a2.5 2.5 0 1 0 0 5zM199 231.197h31.58a2.5 2.5 0 1 0 0-5H199a2.5 2.5 0 1 0 0 5z" fill="#000000" opacity="1" data-original="#000000"></path>
    </g>
</svg>