<svg xmlns="http://www.w3.org/2000/svg" version="1.1"
    xmlns:xlink="http://www.w3.org/1999/xlink" width="512" height="512" x="0" y="0" viewBox="0 0 512 512" style="enable-background:new 0 0 512 512" xml:space="preserve" class="">
    <g>
        <path fill="#d9ccbc" d="m440 116-192 96-87.38-40.33L264 116l84.74-45.63z" opacity="1" data-original="#d9ccbc"></path>
        <path fill="#5f4d37" d="M440 116v252l-192 96V212z" opacity="1" data-original="#5f4d37"></path>
        <path fill="#a0815c" d="M248 212v252L40 368V116l64 29.54 56.62 26.13z" opacity="1" data-original="#a0815c" class=""></path>
        <path fill="#d9ccbc" d="M292.24 42.12 150.16 116 104 140v5.54L40 116l208-96z" opacity="1" data-original="#d9ccbc"></path>
        <g fill="#ff9811">
            <path d="M348.74 70.37 264 116l-103.38 55.67L104 145.54V140l46.16-24 142.08-73.88z" fill="#ff9811" opacity="1" data-original="#ff9811"></path>
            <path d="m160.62 171.67-.62.33v144l-56-24V145.54z" fill="#ff9811" opacity="1" data-original="#ff9811"></path>
        </g>
        <circle cx="392" cy="408" r="88" fill="#91cc04" opacity="1" data-original="#91cc04" class=""></circle>
        <path d="M448 330.07V112a8.011 8.011 0 0 0-4.42-7.16l-192-96a8.018 8.018 0 0 0-6.93-.1l-208 96A7.978 7.978 0 0 0 32 112v256a7.978 7.978 0 0 0 4.65 7.26l208 96a8 8 0 0 0 6.93-.1l51.92-25.97A95.99 95.99 0 1 0 448 330.07zM331.38 66.63l-171.04 92.1-43.82-20.22L292.31 47.1zM152 172.5v127.37l-40-17.15V154.04zm95.86-147.62 26.77 13.38-174.32 90.64a8.133 8.133 0 0 0-1.81 1.29L59.09 112zM240 451.5 48 362.88V124.5l48 22.16V288a8 8 0 0 0 4.85 7.35l56 24a7.866 7.866 0 0 0 3.15.65 8 8 0 0 0 8-8V179.89l72 33.23zm7.86-252.38-69.35-32 170.37-91.74L422.11 112zm50.64 230.69L256 451.06V212.94l176-88v195.8a96.021 96.021 0 0 0-133.5 109.07zM392 488a80 80 0 1 1 80-80 80.093 80.093 0 0 1-80 80z" fill="#000000" opacity="1" data-original="#000000" class=""></path>
        <path d="M426.343 386.343 384 428.687l-18.343-18.344a8 8 0 0 0-11.314 11.314l24 24a8 8 0 0 0 11.314 0l48-48a8 8 0 0 0-11.314-11.314z" fill="#000000" opacity="1" data-original="#000000" class=""></path>
    </g>
</svg>