<svg xmlns="http://www.w3.org/2000/svg" version="1.1" xmlns:xlink="http://www.w3.org/1999/xlink" width="512" height="512" x="0" y="0" viewBox="0 0 512 512" style="enable-background:new 0 0 512 512" xml:space="preserve" class=""><g><rect width="471.58" height="257.89" x="20.21" y="127.05" fill="#76ab3a" rx="4.61" transform="rotate(-45 255.972 256.068)" opacity="1" data-original="#76ab3a" class=""></rect><path fill="#316729" d="m331.536 37.142 143.26 143.26-294.339 294.337-143.26-143.26z" opacity="1" data-original="#316729"></path><path fill="#76ab3a" d="m360.94 92.61 62.91 62.91a27.204 27.204 0 0 0-7.89 5.66c-10.06 10.33-10.42 26.99-.78 37.71 1.14 1.27 2.37 2.41 3.67 3.42 2.41 1.87 2.7 5.39.55 7.54L209.86 419.39c-2.16 2.16-5.67 1.86-7.54-.55-1.01-1.3-2.15-2.53-3.42-3.67-10.72-9.64-27.39-9.27-37.71.78-.97.95-1.86 1.95-2.66 2.99-1.82 2.37-5.34 2.56-7.45.44l-58.45-58.45c-2.12-2.12-1.93-5.63.44-7.45 1.04-.8 2.04-1.69 2.99-2.66 10.06-10.32 10.42-26.99.78-37.71a28.081 28.081 0 0 0-3.67-3.42c-2.41-1.87-2.7-5.39-.55-7.54L302.15 92.61c2.16-2.16 5.67-1.86 7.54.55 1.01 1.3 2.15 2.52 3.42 3.67 10.72 9.64 27.39 9.28 37.71-.78.97-.95 1.86-1.95 2.66-2.99 1.82-2.37 5.34-2.56 7.45-.44z" opacity="1" data-original="#76ab3a" class=""></path><g fill="#316729"><circle cx="256" cy="256" r="69.08" fill="#316729" opacity="1" data-original="#316729"></circle><circle cx="347.51" cy="164.5" r="23.03" fill="#316729" opacity="1" data-original="#316729"></circle><circle cx="164.5" cy="347.51" r="23.03" fill="#316729" opacity="1" data-original="#316729"></circle></g><g data-name="Money"><rect width="512" height="280" y="116" fill="#92d449" rx="5" opacity="1" data-original="#92d449"></rect><path fill="#45903a" d="M482 146v220H30V146z" opacity="1" data-original="#45903a" class=""></path><path fill="#92d449" d="M462 210.64v90.72c0 3.07-2.73 5.37-5.77 4.94-1.71-.24-3.47-.34-5.26-.28-15.4.51-28.1 12.94-28.92 28.32-.11 2.03-.02 4.01.26 5.94.43 3.02-1.89 5.72-4.94 5.72H94.64c-3.05 0-5.37-2.7-4.94-5.72.28-1.93.37-3.92.26-5.94-.82-15.39-13.52-27.81-28.92-28.32-1.79-.06-3.55.04-5.26.28-3.04.43-5.77-1.87-5.77-4.94v-90.72c0-3.07 2.73-5.37 5.77-4.94 1.71.24 3.47.34 5.26.28 15.4-.51 28.1-12.93 28.92-28.32.11-2.03.02-4.02-.26-5.94-.43-3.02 1.89-5.72 4.94-5.72h322.72c3.05 0 5.37 2.7 4.94 5.72-.27 1.93-.37 3.91-.26 5.94.82 15.39 13.52 27.81 28.92 28.32 1.79.06 3.55-.04 5.26-.28 3.04-.43 5.77 1.87 5.77 4.94z" opacity="1" data-original="#92d449"></path><g fill="#45903a"><circle cx="256" cy="256" r="75" fill="#45903a" opacity="1" data-original="#45903a" class=""></circle><circle cx="396.5" cy="256" r="25" fill="#45903a" opacity="1" data-original="#45903a" class=""></circle><circle cx="115.5" cy="256" r="25" fill="#45903a" opacity="1" data-original="#45903a" class=""></circle></g></g><path fill="#92d449" d="M288.13 219.83h-14.86c2.15 3.44 3.54 7.32 4.17 11.64h14.64l-4.03 15.45h-10.76c-1.12 6.78-3.72 12.32-7.8 16.62-4.08 4.29-9.87 7.59-17.38 9.88l29.72 36.46v1.1h-27.52l-33.6-40.11-.07-14.13h17.28c6.98-.15 11.49-3.42 13.54-9.81h-32.94l4.03-15.45h28.33c-2.15-4.64-6.34-7.05-12.59-7.25H218.6l4.68-19.84h68.88z" data-name="Icon" opacity="1" data-original="#92d449"></path></g></svg>